<?xml version="1.0" encoding="UTF-8" standalone="no"?>
<svg
   xmlns:dc="http://purl.org/dc/elements/1.1/"
   xmlns:cc="http://creativecommons.org/ns#"
   xmlns:rdf="http://www.w3.org/1999/02/22-rdf-syntax-ns#"
   xmlns:svg="http://www.w3.org/2000/svg"
   xmlns="http://www.w3.org/2000/svg"
   id="svg8"
   version="1.1"
   viewBox="0 0 63.5 63.310863"
   height="63.310863mm"
   width="63.5mm">
  <defs
     id="defs2">
    <marker
       style="overflow: visible;"
       id="marker1298"
       refX="0"
       refY="0"
       orient="auto">
      <path
         transform="matrix(0.8,0,0,0.8,10,0)"
         style="fill: #38337d; fill-opacity: 1; fill-rule: evenodd; stroke: none; stroke-width: 1pt; stroke-opacity: 1;"
         d="M 0,0 5,-5 -12.5,0 5,5 Z"
         id="path1296" />
    </marker>
    <marker
       style="overflow: visible;"
       id="marker1264"
       refX="0"
       refY="0"
       orient="auto">
      <path
         transform="matrix(0.8,0,0,0.8,10,0)"
         style="fill: #000; fill-opacity: 1; fill-rule: evenodd; stroke: #000; stroke-width: 1pt; stroke-opacity: 1;"
         d="M 0,0 5,-5 -12.5,0 5,5 Z"
         id="path1262" />
    </marker>
    <marker
       style="overflow: visible;"
       id="marker1236"
       refX="0"
       refY="0"
       orient="auto">
      <path
         transform="matrix(0.8,0,0,0.8,10,0)"
         style="fill: #000; fill-opacity: 1; fill-rule: evenodd; stroke: #000; stroke-width: 1pt; stroke-opacity: 1;"
         d="M 0,0 5,-5 -12.5,0 5,5 Z"
         id="path1234" />
    </marker>
    <marker
       style="overflow: visible;"
       id="marker1214"
       refX="0"
       refY="0"
       orient="auto">
      <path
         transform="matrix(0.8,0,0,0.8,10,0)"
         style="fill: #000; fill-opacity: 1; fill-rule: evenodd; stroke: #000; stroke-width: 1pt; stroke-opacity: 1;"
         d="M 0,0 5,-5 -12.5,0 5,5 Z"
         id="path1212" />
    </marker>
    <marker
       style="overflow: visible;"
       id="Arrow1Lstart"
       refX="0"
       refY="0"
       orient="auto">
      <path
         transform="matrix(0.8,0,0,0.8,10,0)"
         style="fill: #000; fill-opacity: 1; fill-rule: evenodd; stroke: #000; stroke-width: 1pt; stroke-opacity: 1;"
         d="M 0,0 5,-5 -12.5,0 5,5 Z"
         id="path936" />
    </marker>
  </defs>
  <metadata
     id="metadata5">
    <rdf:RDF>
      <cc:Work
         rdf:about="">
        <dc:format>image/svg+xml</dc:format>
        <dc:type
           rdf:resource="http://purl.org/dc/dcmitype/StillImage" />
        <dc:title></dc:title>
      </cc:Work>
    </rdf:RDF>
  </metadata>
  <g
     transform="translate(96.383781,-106.1222)"
     id="layer1">
    <path
       id="path922"
       transform="scale(0.26458333)"
       d="m -337.14258,401.0918 v 27.14258 h -27.14258 v 212.14257 h 240 V 561.0918 H -150 v 52.85547 h -27.14258 V 561.0918 H -150 v -27.14453 h 25.71484 v -25.71289 h -52.85742 v 25.71289 h -26.42969 V 508.23438 H -230 v 25.71289 h -26.42773 V 508.23438 H -230 v -27.85743 h -53.57227 v -52.14257 h -27.14257 V 401.0918 Z m 53.57031,27.14258 h 27.14454 V 401.0918 h -27.14454 z M -230,480.37695 h 26.42773 V 453.94922 H -230 Z m 26.42773,-26.42773 H -150 v -25.71484 h -53.57227 z m 0,-25.71484 V 401.0918 H -230 v 27.14258 z m 53.57227,0 h 25.71484 V 401.0918 H -150 Z m 0,25.71484 v 26.42773 h 25.71484 v -26.42773 z m -53.57227,26.42773 v 27.85743 h 26.42969 v -27.85743 z m -133.57031,-26.42773 h 26.42774 v 26.42773 h -26.42774 z M -230,561.0918 h 26.42773 v 25.71289 H -230 Z"
       style="fill: #38337d; fill-opacity: 1; fill-rule: evenodd; stroke: none; stroke-width: 0.99999994px; stroke-linecap: butt; stroke-linejoin: miter; stroke-opacity: 1; marker-end: url(#marker1298);" />
  </g>
</svg>
